<svg width="91" height="22" viewBox="0 0 91 22" fill="none" xmlns="http://www.w3.org/2000/svg">
<path d="M83.1505 15.158C82.0279 14.5433 82.0054 13.6916 82.0647 13.3771C82.124 13.0585 82.3449 13.1974 82.4839 13.1974C83.2221 13.1974 83.997 12.9788 84.9519 12.0046C86.0295 10.9059 86.3669 8.46527 84.7106 6.87429C82.9276 5.15873 81.028 5.45896 79.8053 7.00092C79.5558 7.31748 78.9424 7.54826 78.4128 7.52988C77.6276 7.49925 78.1224 8.11603 78.1224 8.2447C78.1224 8.37541 78.0038 8.46323 77.9343 8.44485C77.6685 8.36928 77.7748 8.76141 77.7748 8.88191C77.7748 9.0024 77.6644 9.06163 77.6051 9.06163C77.2759 9.06163 77.3659 9.35777 77.3761 9.43946C77.3863 9.51911 77.3556 9.65595 77.2473 9.71722C77.143 9.77645 77.0183 10.0358 77.0183 10.2339C77.0183 10.5913 77.3454 10.8405 77.8955 11.249C78.4414 11.6574 78.5109 12.0434 78.5212 12.3232C78.5314 12.601 78.5559 13.0503 78.6807 13.3464C78.8279 13.7039 78.8095 14.3615 78.0529 14.3901C77.1287 14.4268 75.4847 15.1641 75.3457 15.2152C74.8242 15.399 74.1331 15.4664 73.5953 15.3316C73.305 15.1274 73.0289 14.9027 72.7672 14.6617C72.6588 14.29 72.847 13.8917 73.0351 13.6242C73.3438 13.9326 73.8019 13.9122 74.0595 13.9203C74.3192 13.9326 75.5828 13.7324 75.7628 13.6732C75.9427 13.614 76.0204 13.6344 76.1308 13.6732C76.6134 13.8468 77.2759 13.8999 77.5438 12.9768C77.8137 12.0516 77.1778 12.311 77.096 12.3498C77.0162 12.3906 76.9058 12.3804 76.9467 12.3008C77.0653 12.0639 76.8874 12.0884 76.7872 12.0802C76.5296 12.0536 76.1901 12.3294 76.0818 12.4274C75.9713 12.5275 75.863 12.5173 75.8221 12.4968C75.4786 12.3273 74.4562 12.5744 74.1392 12.0189C74.1699 11.8719 73.8796 9.62327 73.7323 9.23523C73.6996 9.15149 73.673 9.0167 73.7712 8.86761C74.0309 8.47752 74.7465 8.8962 75.135 8.88599C75.5992 8.87374 75.6749 8.67971 75.8016 8.52245C75.9243 8.36928 76.0143 8.45506 76.0797 8.41421C76.1636 8.35907 76.0838 8.24878 76.1145 8.1916C76.1451 8.13237 76.1799 8.16096 76.2576 8.09152C76.3374 8.02004 76.2453 7.87299 76.2883 7.81377C76.4028 7.64221 76.7156 7.77905 76.5275 7.32769C76.4232 7.07853 76.5664 6.80894 76.7054 6.63126C76.9303 6.34124 77.8014 5.11789 76.2678 3.84756C74.8038 2.63645 73.3193 2.73449 72.3644 3.76791C71.4095 4.80133 71.8859 6.31469 71.9861 6.71091C72.0863 7.10916 71.798 7.47065 71.4688 7.62587C71.2071 7.75045 70.61 8.14667 70.1601 8.53879C70.2317 5.29557 72.2049 2.44243 75.2271 1.22724C75.3559 1.38859 75.499 1.53972 75.6544 1.68268C75.317 1.92776 74.583 2.5854 74.583 2.5854C74.583 2.5854 74.6832 2.59969 74.7772 2.62216C74.8426 2.63645 74.9796 2.67934 74.9796 2.67934C74.9796 2.67934 75.6278 2.12995 75.9305 1.91143C76.1676 2.09115 76.4253 2.24228 76.6993 2.36074C76.5521 2.60786 76.184 3.30225 76.184 3.30225C76.184 3.30225 76.2678 3.35331 76.3455 3.40437C76.4232 3.45543 76.4703 3.50036 76.4703 3.50036C76.4703 3.50036 76.8731 2.74265 77.0244 2.48941C77.3618 2.60173 77.7155 2.66709 78.0713 2.68343V4.07017C77.873 4.06404 77.3638 4.04362 77.1573 4.0232L77.0285 4.01094L77.1021 4.11919C77.1573 4.19884 77.2002 4.27849 77.2371 4.34997L77.2514 4.38061L77.2861 4.38265C77.4354 4.3949 77.9016 4.41124 78.0734 4.41532V6.94373H78.4251V6.36575C78.9403 6.34124 79.3677 6.30652 79.883 6.26159L79.9055 6.25751L80.3594 5.85721L80.112 5.87763C79.566 5.94912 79.0855 5.98179 78.65 6.0063C78.65 6.0063 78.5007 6.01447 78.423 6.01856V4.41737C79.0569 4.40307 79.6928 4.31525 80.3144 4.15186C80.4841 4.5685 80.8052 5.57945 80.8052 5.57945L81.1364 5.47734C81.1364 5.47734 80.8174 4.47455 80.6477 4.05792C81.1732 3.89453 81.6824 3.67804 82.1629 3.41458C82.5514 3.89044 82.8847 4.4092 83.1607 4.96063C82.9113 5.07704 82.4594 5.23634 82.4594 5.23634C82.8233 5.27719 83.0994 5.36297 83.0994 5.36297C83.0994 5.36297 83.2282 5.30782 83.31 5.27106C83.3427 5.34459 83.4061 5.48959 83.4061 5.48959L83.86 5.69178L83.8069 5.56516C83.8069 5.56516 83.6576 5.20571 83.6208 5.12197C84.1013 4.88506 84.5737 4.61343 85.0255 4.30912C85.8864 5.62234 86.3424 7.14797 86.3424 8.72465C86.3444 11.349 85.091 13.6793 83.1505 15.158ZM77.372 0.700322C76.8731 0.918852 76.3967 1.17823 75.9489 1.48458C75.8119 1.36408 75.6892 1.23541 75.5747 1.1047C76.1554 0.900471 76.7565 0.765677 77.372 0.700322ZM76.8854 2.07073C76.6543 1.9727 76.4396 1.8522 76.2372 1.70923C76.6931 1.40901 77.1798 1.15168 77.693 0.941318C77.4068 1.30077 77.1328 1.6786 76.8854 2.07073ZM78.0774 1.0128V2.34236C77.7871 2.32806 77.4988 2.27496 77.2187 2.18918C77.4783 1.7848 77.7666 1.39063 78.0774 1.0128ZM78.4271 2.68955C78.789 2.67322 79.1448 2.60786 79.4883 2.49349C79.746 2.92238 79.977 3.37169 80.1815 3.83326C79.6069 3.98031 79.0201 4.062 78.4291 4.07426V2.68955H78.4271ZM78.4271 0.996461C78.7379 1.37021 79.0303 1.76846 79.2982 2.18714C79.016 2.27292 78.7236 2.32602 78.4271 2.34032V0.996461ZM80.2817 1.70719C80.0793 1.8522 79.8605 1.9727 79.6356 2.06869C79.3902 1.68268 79.1141 1.30485 78.8217 0.937233C79.3329 1.14759 79.8216 1.40493 80.2817 1.70719ZM80.9422 1.1047C80.8277 1.24154 80.7029 1.36817 80.568 1.48458C80.1222 1.18027 79.6478 0.918852 79.155 0.704407C79.7685 0.771804 80.3676 0.904556 80.9422 1.1047ZM81.938 3.14704C81.4861 3.39007 81.0076 3.59022 80.5189 3.73931C80.3144 3.27162 80.0772 2.81005 79.8155 2.36687C80.0874 2.24637 80.3451 2.09932 80.5843 1.91755C81.0771 2.27496 81.5331 2.68955 81.938 3.14704ZM81.2857 1.23337C81.9584 1.505 82.5923 1.86854 83.175 2.31581C82.8847 2.5568 82.5718 2.77533 82.2447 2.96935C81.8316 2.49553 81.3654 2.0646 80.8563 1.68881C81.0117 1.54789 81.1548 1.39676 81.2857 1.23337ZM84.8333 4.02728C84.4019 4.31933 83.948 4.5828 83.4756 4.81358C83.1975 4.25806 82.8601 3.72706 82.4696 3.24098C82.8152 3.03062 83.1464 2.79371 83.4511 2.53842C83.9725 2.97344 84.4367 3.47585 84.8333 4.02728ZM78.2553 0.306152C73.6056 0.306152 69.8228 4.08447 69.8228 8.72873C69.8228 13.373 73.6056 17.1513 78.2553 17.1513C82.9051 17.1513 86.6879 13.373 86.6879 8.72873C86.6879 4.08447 82.9051 0.306152 78.2553 0.306152Z" fill="white"/>
<path d="M69.0583 2.54464L68.9274 2.66105C68.4326 3.10015 67.3039 4.25407 67.4756 5.52031C67.4756 5.5244 67.494 5.60813 67.494 5.60813C67.494 5.61017 67.5513 5.85934 67.5513 5.85934L67.7087 5.71638C68.3999 5.08325 68.9192 4.01103 69.1319 2.77542L69.1912 2.42822L69.0583 2.54464Z" fill="white"/>
<path d="M66.7639 4.73179L66.7067 4.88496C66.6269 5.09737 66.4859 5.54055 66.4082 6.13079C66.3018 6.96814 66.3264 8.15065 67.0543 9.03294C67.0523 9.0309 67.134 9.1371 67.134 9.1371L67.2179 9.2433L67.3263 8.70616C67.4469 7.75648 67.2874 5.76725 66.9398 4.87884L66.8192 4.57861L66.7639 4.73179Z" fill="white"/>
<path d="M65.9254 8.15278L65.9152 8.31003C65.8538 9.16169 65.8988 11.2612 67.6021 12.3763C67.6021 12.3784 67.8045 12.507 67.8045 12.507L67.7943 12.2681C67.7657 11.4716 66.8333 9.09225 66.1339 8.23855L65.9356 7.99756L65.9254 8.15278Z" fill="white"/>
<path d="M66.2202 11.9129L66.2488 12.0579C66.4983 13.2649 67.6434 15.2194 69.4141 15.7872L69.6554 15.8668L69.5675 15.6279C69.2362 14.7252 67.5309 12.6216 66.4349 11.9292L66.1875 11.772L66.2202 11.9129Z" fill="white"/>
<path d="M69.7736 4.36215L69.6325 4.44588C68.3157 5.24852 67.6981 6.22271 67.7452 7.4236L67.7574 7.69727L67.9496 7.53593C68.6633 6.94774 69.5528 5.4405 69.8165 4.5868L69.9126 4.27637L69.7736 4.36215Z" fill="white"/>
<path d="M68.9989 6.99092L68.8987 7.08487C68.5613 7.40551 67.4694 8.56556 67.5655 10.0013C67.5798 10.2219 67.6289 10.4588 67.7148 10.7059L67.7925 10.9347L67.9336 10.7366C68.455 10.0034 69.1461 8.06927 69.1093 7.1686L69.0971 6.89697L68.9989 6.99092Z" fill="white"/>
<path d="M69.0563 9.48236L68.9807 9.59264C68.4306 10.4075 68.1485 11.2469 68.1669 12.0189C68.1812 12.5887 68.3652 13.1361 68.7087 13.6426L68.8232 13.8141L68.9214 13.6324C69.1586 13.1851 69.3467 11.7371 69.3201 10.5934C69.3099 10.189 69.269 9.85406 69.2015 9.62532L69.1299 9.37207L69.0563 9.48236Z" fill="white"/>
<path d="M69.6943 12.1457L69.6596 12.2601C69.4939 12.7911 69.4162 13.3078 69.4285 13.8C69.4612 14.9131 69.954 15.7831 70.8966 16.3876L71.0561 16.4877L71.0909 16.2733C71.0909 16.2692 71.1052 16.1017 71.1052 16.1017C71.0786 15.197 70.4039 12.9177 69.8763 12.2213L69.7291 12.0293L69.6943 12.1457Z" fill="white"/>
<path d="M67.8375 15.6769L67.907 15.7912C68.6166 16.9799 69.8209 18.5116 72.0722 18.1175L72.2603 18.0848L72.154 17.9275C71.7328 17.3026 68.9989 15.7627 68.0338 15.6054L67.77 15.5625L67.8375 15.6769Z" fill="white"/>
<path d="M71.1687 18.6935L70.8149 18.7894L71.1544 18.9283C72.5857 19.5124 74.381 19.686 75.4218 19.3368C75.8123 19.204 76.0495 18.9896 76.3399 18.7057C78.172 18.8956 79.8875 20.4172 80.8874 21.6589L80.9426 21.7202L81.0203 21.6957C81.1328 21.6569 81.3066 21.5241 81.3782 21.4445L81.4477 21.3689L81.3843 21.2852C80.3415 19.9229 78.7077 19.0774 78.6361 19.0447C77.166 18.3299 74.5712 17.7703 71.1687 18.6935Z" fill="white"/>
<path d="M71.2441 14.8905L71.2645 15.011C71.4792 16.359 72.0272 18.1276 74.3051 17.9316L74.4503 17.9193L74.4135 17.7763C74.2601 17.1636 72.1724 15.3827 71.4424 14.8823L71.2236 14.77L71.2441 14.8905Z" fill="white"/>
<path d="M87.3521 2.42627L87.4113 2.77347C87.624 4.00908 88.1434 5.0813 88.8345 5.71442L88.9919 5.85943C88.9919 5.85943 89.0471 5.61027 89.0471 5.60822C89.0471 5.60822 89.0635 5.52449 89.0655 5.5204C89.2393 4.25416 88.1106 3.10024 87.6158 2.66114L87.4829 2.54472L87.3521 2.42627Z" fill="white"/>
<path d="M89.7244 4.58057L89.6037 4.88283C89.2541 5.77125 89.0946 7.76048 89.2152 8.70812L89.3236 9.24525L89.4074 9.13905C89.4074 9.13905 89.4892 9.03489 89.4872 9.03489C90.2131 8.15261 90.2396 6.96805 90.1313 6.13274C90.0556 5.5425 89.9125 5.09728 89.8348 4.88692L89.7775 4.73374L89.7244 4.58057Z" fill="white"/>
<path d="M90.6055 7.99756L90.4072 8.23855C89.7099 9.09225 88.7775 11.4716 88.7489 12.2681L88.7407 12.507C88.7407 12.507 88.9391 12.3784 88.9391 12.3763C90.6424 11.2632 90.6873 9.16169 90.626 8.31003L90.6137 8.15482L90.6055 7.99756Z" fill="white"/>
<path d="M90.3541 11.7676L90.1067 11.9248C89.0107 12.6192 87.3054 14.7208 86.9742 15.6255L86.8862 15.8645L87.1296 15.7848C88.8983 15.2191 90.0454 13.2626 90.2928 12.0555L90.3255 11.9105L90.3541 11.7676Z" fill="white"/>
<path d="M86.6958 4.23584L86.7858 4.54832C87.0311 5.40814 87.892 6.93172 88.5933 7.5342L88.7835 7.69759L88.7978 7.42188C88.8694 6.22099 88.2703 5.23658 86.9698 4.4074L86.8308 4.31958L86.6958 4.23584Z" fill="white"/>
<path d="M87.4446 6.89697L87.4344 7.1686C87.3996 8.06927 88.0887 10.0034 88.6101 10.7366L88.7512 10.9347L88.8309 10.7059C88.9148 10.4588 88.9639 10.2219 88.9782 10.0013C89.0743 8.56556 87.9824 7.40551 87.645 7.08487L87.5468 6.99092L87.4446 6.89697Z" fill="white"/>
<path d="M87.4159 9.37207L87.3402 9.62532C87.2728 9.85406 87.2319 10.187 87.2216 10.5934C87.193 11.7391 87.3811 13.1871 87.6183 13.6344L87.7165 13.8162L87.833 13.6446C88.1765 13.1361 88.3585 12.5908 88.3728 12.0189C88.3912 11.2469 88.1111 10.4075 87.5611 9.59264L87.4875 9.48236L87.4159 9.37207Z" fill="white"/>
<path d="M86.8106 12.0312L86.6654 12.2232C86.1379 12.9197 85.4611 15.1989 85.4365 16.1037C85.4365 16.1037 85.4488 16.2711 85.4508 16.2732L85.4856 16.4876L85.6451 16.3875C86.5877 15.783 87.0825 14.913 87.1132 13.7999C87.1275 13.3077 87.0498 12.789 86.8822 12.26L86.8454 12.1456L86.8106 12.0312Z" fill="white"/>
<path d="M88.774 15.5605L88.5102 15.6034C87.543 15.7607 84.8092 17.3027 84.39 17.9256L84.2837 18.0828L84.4718 18.1155C86.7272 18.5097 87.9275 16.9759 88.637 15.7893L88.7045 15.6749L88.774 15.5605Z" fill="white"/>
<path d="M77.9053 19.0448C77.8337 19.0795 76.1979 19.925 75.1571 21.2852L75.0938 21.3689L75.1653 21.4445C75.2389 21.5221 75.4107 21.6569 75.5232 21.6937L75.6009 21.7182L75.654 21.6569C76.6519 20.4131 78.3695 18.8936 80.2016 18.7037C80.4919 18.9876 80.7291 19.2 81.1217 19.3348C82.1625 19.686 83.9557 19.5104 85.3891 18.9263L85.7285 18.7874L85.3748 18.6914C81.9703 17.7703 79.3755 18.3299 77.9053 19.0448Z" fill="white"/>
<path d="M85.3178 14.77L85.0991 14.8823C84.3691 15.3827 82.2814 17.1636 82.128 17.7763L82.0933 17.9193L82.2364 17.9316C84.5163 18.1276 85.0643 16.359 85.279 15.011L85.2994 14.8905L85.3178 14.77Z" fill="white"/>
<path d="M29.6837 19.2793H27.2627V6.50047H29.6837V19.2793ZM27.0337 0.900391H29.9127V3.52275H27.0337V0.900391Z" fill="white"/>
<path d="M8.98466 6.5127H11.4057V19.2916H9.03373V17.4065H8.98261C8.0134 19.0118 6.38168 19.6714 4.59865 19.6714C1.92206 19.6714 0.392578 17.6352 0.392578 15.0639V6.5127H2.81357V14.0734C2.81357 16.2893 3.32272 17.9171 5.64352 17.9171C6.63727 17.9171 7.98886 17.4065 8.49801 16.0851C8.95603 14.8883 8.98261 13.3851 8.98261 13.0808V6.5127H8.98466Z" fill="white"/>
<path d="M16.2395 8.39581H16.2906C17.1044 6.79258 18.8895 6.13086 20.1634 6.13086C21.0549 6.13086 25.0054 6.3596 25.0054 10.4586V19.2916H22.5844V11.2469C22.5844 9.13309 21.6908 7.98938 19.6522 7.98938C19.6522 7.98938 18.3252 7.91382 17.3069 8.9309C16.9511 9.28626 16.2886 9.84586 16.2886 12.3416V19.2916H13.8696V6.51278H16.2395V8.39581Z" fill="white"/>
<path d="M39.822 10.612C39.6952 9.01893 38.9366 7.9079 37.2149 7.9079C34.9125 7.9079 34.0251 9.90326 34.0251 12.8892C34.0251 15.873 34.9125 17.8724 37.2149 17.8724C38.8078 17.8724 39.7954 16.839 39.9222 15.0132H42.3309C42.1244 17.8724 39.9999 19.6166 37.1883 19.6166C33.1131 19.6166 31.4937 16.7349 31.4937 12.9892C31.4937 9.26605 33.3646 6.15967 37.3948 6.15967C40.0796 6.15967 42.1019 7.85685 42.2246 10.612H39.822Z" fill="white"/>
<path d="M52.3764 11.676C52.4276 9.55198 51.4624 7.9079 49.1334 7.9079C47.1316 7.9079 45.9457 9.59691 45.9457 11.676H52.3764ZM45.9457 13.3425C45.7678 15.5687 46.6797 17.8724 49.1334 17.8724C51.0085 17.8724 51.945 17.1413 52.221 15.2889H54.7565C54.3762 18.1767 52.1474 19.6166 49.111 19.6166C45.0337 19.6166 43.4102 16.7349 43.4102 12.9913C43.4102 9.2681 45.2872 6.15967 49.3134 6.15967C53.1105 6.23932 54.9058 8.63906 54.9058 12.158V13.3425H45.9457Z" fill="white"/>
<path d="M57.6313 19.2366V8.21002H55.4434V6.53735H57.6313V3.8088C57.711 1.0251 59.8089 0.293945 61.6063 0.293945C62.189 0.293945 62.7473 0.445078 63.3321 0.545152V2.54255C62.9231 2.52213 62.5182 2.46494 62.1113 2.46494C60.7475 2.46494 59.9602 2.82235 60.0359 4.21318V6.5394H62.9742V8.21207H60.0359V19.2386H57.6313V19.2366Z" fill="white"/>
</svg>
