<svg width="105" height="18" viewBox="0 0 105 18" fill="none" xmlns="http://www.w3.org/2000/svg">
<g clip-path="url(#clip0)">
<path d="M5.06069 10.5345C3.60393 9.95662 2.33636 9.45451 2.33636 8.28925C2.33636 6.94399 3.52825 6.4703 4.65393 6.4703C6.59312 6.4703 7.61474 7.55978 7.6242 7.56925L7.71879 7.67346L8.58906 6.18609L8.54177 6.13873C8.49447 6.08188 7.29312 4.74609 4.70123 4.74609C2.63906 4.74609 0.425552 5.85451 0.425552 8.29872C0.425552 10.6008 2.46879 11.4345 4.26609 12.1545C5.73231 12.7419 6.99042 13.2535 6.99042 14.4093C6.99042 15.6977 5.81744 16.2756 4.65393 16.2756C2.44988 16.2756 1.11609 14.8166 1.09717 14.8071L1.01204 14.7124L-0.019043 16.105L0.0377138 16.1714C0.0566327 16.1903 0.44447 16.645 1.21069 17.0998C1.91069 17.5166 3.0742 18.0187 4.62555 18.0187C7.10393 18.0187 8.90123 16.5029 8.90123 14.4187C8.91069 12.0693 6.86744 11.2545 5.06069 10.5345Z" fill="white"/>
<path d="M32.1056 0.0473684C32.0867 0.0473684 31.7935 0 31.3299 0C30.034 0 27.007 0.46421 27.007 4.72737V5.21053H25.3516V6.84H27.0164V17.7158H28.8799V6.84H32.0016V5.21053H28.8799V4.72737C28.8799 3.60947 29.2205 1.72421 31.5097 1.72421C31.8313 1.72421 32.0678 1.77158 32.0678 1.77158L32.2002 1.8V0.0663158L32.1056 0.0473684Z" fill="white"/>
<path d="M40.9026 16.1714L40.7702 16.1998C40.7702 16.1998 40.5526 16.2472 40.2215 16.2472C39.2188 16.2472 37.5445 15.8304 37.5445 13.0072V6.87773H40.6567V5.21983H37.5445V1.56299H35.6715V5.21983H34.0161V6.8872H35.6431V13.1967C35.6431 17.3935 38.4242 18.0283 40.0702 18.0283C40.5242 18.0283 40.7985 17.9809 40.808 17.9714L40.9026 17.9525V16.1714Z" fill="white"/>
<path d="M48.0729 15.338C48.9527 15.338 49.7 14.9401 49.7 14.1916C49.7 12.3064 43.6648 12.5527 43.6648 8.47902C43.6648 6.12007 45.7364 4.75586 48.404 4.75586C51.204 4.75586 52.5662 6.19586 52.5662 6.19586L51.431 8.52639C51.431 8.52639 50.2864 7.43691 48.3945 7.43691C47.5905 7.43691 46.8148 7.78744 46.8148 8.58323C46.8148 10.3738 52.85 10.1464 52.85 14.2201C52.85 16.3327 51.0527 18.019 48.1108 18.019C45.0175 18.019 43.2959 16.1527 43.2959 16.1527L44.7054 13.9453C44.6959 13.9453 46.0581 15.338 48.0729 15.338Z" fill="white"/>
<path fill-rule="evenodd" clip-rule="evenodd" d="M10.8877 11.3114C10.8877 7.62609 13.7634 4.74609 17.4431 4.74609C21.1228 4.74609 23.9985 7.63557 23.9985 11.3114C23.9985 15.0629 21.1228 17.9998 17.4431 17.9998C13.7634 18.0093 10.8877 15.0629 10.8877 11.3114ZM17.4431 16.2756C20.0445 16.2756 22.0877 14.0966 22.0877 11.3114C22.0877 8.61136 20.0539 6.49873 17.4431 6.49873C14.8417 6.49873 12.7985 8.61136 12.7985 11.3114C12.7985 14.0966 14.8417 16.2756 17.4431 16.2756Z" fill="white"/>
<path fill-rule="evenodd" clip-rule="evenodd" d="M66.6607 10.7622C66.6607 7.40849 64.7404 4.75586 61.1648 4.75586C57.4661 4.75586 54.8647 7.48428 54.8647 11.3874C54.8647 14.9874 57.4188 18.019 61.5337 18.019C64.6269 18.019 66.5188 16.2095 66.5188 16.2095L65.3269 13.9453C65.3269 13.9453 63.7472 15.338 61.7512 15.338C59.9066 15.338 58.2229 14.1916 58.0337 11.9843H66.5945C66.585 11.9843 66.6607 11.1316 66.6607 10.7622ZM61.0891 7.1906C62.4512 7.1906 63.5012 8.10954 63.5485 9.82428H58.1283C58.412 8.18533 59.5093 7.1906 61.0891 7.1906Z" fill="white"/>
<path d="M69.5366 4.85041H72.8285V7.06725C72.8285 7.55041 72.7718 7.97673 72.7718 7.97673H72.8285C73.4528 6.13883 75.0893 4.67041 77.1988 4.67041C77.5204 4.67041 77.8231 4.71778 77.8231 4.71778V7.87252C77.8231 7.87252 77.4731 7.82515 77.0096 7.82515C75.5528 7.82515 73.9069 8.61146 73.2636 10.5251C73.0461 11.1599 72.9704 11.8609 72.9704 12.6188V17.7157H69.5461V4.85041H69.5366Z" fill="white"/>
<path d="M79.2705 4.85059H82.6002L85.2394 12.818C85.4854 13.5758 85.6651 14.4285 85.684 14.4285H85.7313C85.7597 14.4285 85.93 13.5758 86.1759 12.818L88.8151 4.85059H92.1448L87.6043 17.7159H83.8773L79.2705 4.85059Z" fill="white"/>
<path fill-rule="evenodd" clip-rule="evenodd" d="M105 10.6484C105 7.24736 103.032 4.54736 99.3809 4.54736C95.5971 4.54736 92.939 7.32315 92.939 11.2832C92.939 14.94 95.5498 18.0189 99.7592 18.0189C102.919 18.0189 104.858 16.181 104.858 16.181L103.638 13.8884C103.638 13.8884 102.02 15.3 99.9768 15.3C98.0849 15.3 96.3727 14.1442 96.1741 11.8989H104.934C104.924 11.8895 105 11.0274 105 10.6484ZM99.3052 7.01999C100.696 7.01999 101.765 7.95789 101.821 9.69157H96.2687C96.5619 8.0242 97.6876 7.01999 99.3052 7.01999Z" fill="white"/>
</g>
<defs>
<clipPath id="clip0">
<rect width="105" height="18" fill="white"/>
</clipPath>
</defs>
</svg>
